<mxfile host="app.diagrams.net" modified="2022-08-31T23:54:03.699Z" agent="5.0 (Macintosh; Intel Mac OS X 10_15_7) AppleWebKit/537.36 (KHTML, like Gecko) Chrome/104.0.0.0 Safari/537.36" etag="URwSn1qULLI_Wzv4PCVh" version="20.2.7" type="github">
  <diagram id="T-UO5omsCnPL50i4tn5Q" name="페이지-1">
    <mxGraphModel dx="623" dy="559" grid="1" gridSize="10" guides="1" tooltips="1" connect="1" arrows="1" fold="1" page="1" pageScale="1" pageWidth="827" pageHeight="1169" math="0" shadow="0">
      <root>
        <mxCell id="0" />
        <mxCell id="1" parent="0" />
        <mxCell id="kByOkMor4dgoViuKzWpp-3" value="" style="edgeStyle=orthogonalEdgeStyle;rounded=0;orthogonalLoop=1;jettySize=auto;html=1;" edge="1" parent="1" source="kByOkMor4dgoViuKzWpp-1" target="kByOkMor4dgoViuKzWpp-2">
          <mxGeometry relative="1" as="geometry" />
        </mxCell>
        <mxCell id="kByOkMor4dgoViuKzWpp-1" value="시작" style="ellipse;shape=doubleEllipse;whiteSpace=wrap;html=1;aspect=fixed;" vertex="1" parent="1">
          <mxGeometry x="220" y="190" width="80" height="80" as="geometry" />
        </mxCell>
        <mxCell id="kByOkMor4dgoViuKzWpp-5" value="" style="edgeStyle=orthogonalEdgeStyle;rounded=0;orthogonalLoop=1;jettySize=auto;html=1;" edge="1" parent="1" source="kByOkMor4dgoViuKzWpp-2" target="kByOkMor4dgoViuKzWpp-4">
          <mxGeometry relative="1" as="geometry" />
        </mxCell>
        <mxCell id="kByOkMor4dgoViuKzWpp-2" value="이름을 입력 받음" style="ellipse;whiteSpace=wrap;html=1;" vertex="1" parent="1">
          <mxGeometry x="200" y="360" width="120" height="60" as="geometry" />
        </mxCell>
        <mxCell id="kByOkMor4dgoViuKzWpp-8" value="" style="edgeStyle=orthogonalEdgeStyle;rounded=0;orthogonalLoop=1;jettySize=auto;html=1;" edge="1" parent="1" source="kByOkMor4dgoViuKzWpp-4" target="kByOkMor4dgoViuKzWpp-6">
          <mxGeometry relative="1" as="geometry" />
        </mxCell>
        <mxCell id="kByOkMor4dgoViuKzWpp-4" value="주인공 생성" style="ellipse;whiteSpace=wrap;html=1;" vertex="1" parent="1">
          <mxGeometry x="200" y="500" width="120" height="60" as="geometry" />
        </mxCell>
        <mxCell id="kByOkMor4dgoViuKzWpp-6" value="대기" style="shape=ext;double=1;whiteSpace=wrap;html=1;aspect=fixed;" vertex="1" parent="1">
          <mxGeometry x="225" y="600" width="70" height="70" as="geometry" />
        </mxCell>
        <mxCell id="kByOkMor4dgoViuKzWpp-11" value="" style="edgeStyle=orthogonalEdgeStyle;rounded=0;orthogonalLoop=1;jettySize=auto;html=1;" edge="1" parent="1" source="kByOkMor4dgoViuKzWpp-9" target="kByOkMor4dgoViuKzWpp-10">
          <mxGeometry relative="1" as="geometry" />
        </mxCell>
        <mxCell id="kByOkMor4dgoViuKzWpp-9" value="메뉴 &lt;br&gt;입력버튼&lt;br&gt;클릭" style="shape=ext;double=1;whiteSpace=wrap;html=1;aspect=fixed;" vertex="1" parent="1">
          <mxGeometry x="510" y="200" width="80" height="80" as="geometry" />
        </mxCell>
        <mxCell id="kByOkMor4dgoViuKzWpp-13" value="" style="edgeStyle=orthogonalEdgeStyle;rounded=0;orthogonalLoop=1;jettySize=auto;html=1;" edge="1" parent="1" source="kByOkMor4dgoViuKzWpp-10" target="kByOkMor4dgoViuKzWpp-12">
          <mxGeometry relative="1" as="geometry" />
        </mxCell>
        <mxCell id="kByOkMor4dgoViuKzWpp-22" value="" style="edgeStyle=orthogonalEdgeStyle;rounded=0;orthogonalLoop=1;jettySize=auto;html=1;fontSize=9;" edge="1" parent="1" source="kByOkMor4dgoViuKzWpp-10" target="kByOkMor4dgoViuKzWpp-21">
          <mxGeometry relative="1" as="geometry" />
        </mxCell>
        <mxCell id="kByOkMor4dgoViuKzWpp-27" value="" style="edgeStyle=orthogonalEdgeStyle;rounded=0;orthogonalLoop=1;jettySize=auto;html=1;fontSize=14;" edge="1" parent="1" source="kByOkMor4dgoViuKzWpp-10" target="kByOkMor4dgoViuKzWpp-26">
          <mxGeometry relative="1" as="geometry" />
        </mxCell>
        <mxCell id="kByOkMor4dgoViuKzWpp-10" value="몇 번인가 ?" style="rhombus;whiteSpace=wrap;html=1;" vertex="1" parent="1">
          <mxGeometry x="510" y="320" width="80" height="80" as="geometry" />
        </mxCell>
        <mxCell id="kByOkMor4dgoViuKzWpp-15" value="" style="edgeStyle=orthogonalEdgeStyle;rounded=0;orthogonalLoop=1;jettySize=auto;html=1;" edge="1" parent="1" source="kByOkMor4dgoViuKzWpp-12" target="kByOkMor4dgoViuKzWpp-14">
          <mxGeometry relative="1" as="geometry" />
        </mxCell>
        <mxCell id="kByOkMor4dgoViuKzWpp-12" value="화면에 종료 안내 &lt;br&gt;메시지 표시" style="ellipse;whiteSpace=wrap;html=1;" vertex="1" parent="1">
          <mxGeometry x="650" y="330" width="120" height="60" as="geometry" />
        </mxCell>
        <mxCell id="kByOkMor4dgoViuKzWpp-14" value="끝" style="ellipse;shape=doubleEllipse;whiteSpace=wrap;html=1;" vertex="1" parent="1">
          <mxGeometry x="660" y="420" width="100" height="60" as="geometry" />
        </mxCell>
        <mxCell id="kByOkMor4dgoViuKzWpp-16" value="1. 모험" style="text;strokeColor=none;fillColor=none;html=1;fontSize=18;fontStyle=1;verticalAlign=middle;align=center;" vertex="1" parent="1">
          <mxGeometry x="460" y="330" width="60" height="20" as="geometry" />
        </mxCell>
        <mxCell id="kByOkMor4dgoViuKzWpp-17" value="2. 휴식" style="text;strokeColor=none;fillColor=none;html=1;fontSize=18;fontStyle=1;verticalAlign=middle;align=center;" vertex="1" parent="1">
          <mxGeometry x="505" y="410" width="90" height="30" as="geometry" />
        </mxCell>
        <mxCell id="kByOkMor4dgoViuKzWpp-18" value="3. 종료" style="text;strokeColor=none;fillColor=none;html=1;fontSize=18;fontStyle=1;verticalAlign=middle;align=center;" vertex="1" parent="1">
          <mxGeometry x="590" y="325" width="60" height="30" as="geometry" />
        </mxCell>
        <mxCell id="kByOkMor4dgoViuKzWpp-25" value="" style="edgeStyle=orthogonalEdgeStyle;rounded=0;orthogonalLoop=1;jettySize=auto;html=1;fontSize=9;" edge="1" parent="1" source="kByOkMor4dgoViuKzWpp-21" target="kByOkMor4dgoViuKzWpp-24">
          <mxGeometry relative="1" as="geometry" />
        </mxCell>
        <mxCell id="kByOkMor4dgoViuKzWpp-21" value="&lt;font style=&quot;font-size: 14px;&quot;&gt;적 생성&lt;/font&gt;" style="ellipse;whiteSpace=wrap;html=1;fontSize=18;" vertex="1" parent="1">
          <mxGeometry x="370" y="340" width="86" height="40" as="geometry" />
        </mxCell>
        <mxCell id="kByOkMor4dgoViuKzWpp-29" value="" style="edgeStyle=orthogonalEdgeStyle;rounded=0;orthogonalLoop=1;jettySize=auto;html=1;fontSize=14;" edge="1" parent="1" source="kByOkMor4dgoViuKzWpp-24" target="kByOkMor4dgoViuKzWpp-28">
          <mxGeometry relative="1" as="geometry" />
        </mxCell>
        <mxCell id="kByOkMor4dgoViuKzWpp-24" value="&lt;font style=&quot;font-size: 13px;&quot;&gt;전투메뉴로 &lt;br&gt;전환&lt;/font&gt;" style="ellipse;whiteSpace=wrap;html=1;fontSize=18;" vertex="1" parent="1">
          <mxGeometry x="356" y="460" width="116" height="60" as="geometry" />
        </mxCell>
        <mxCell id="kByOkMor4dgoViuKzWpp-31" value="" style="edgeStyle=orthogonalEdgeStyle;rounded=0;orthogonalLoop=1;jettySize=auto;html=1;fontSize=14;" edge="1" parent="1" source="kByOkMor4dgoViuKzWpp-26" target="kByOkMor4dgoViuKzWpp-30">
          <mxGeometry relative="1" as="geometry" />
        </mxCell>
        <mxCell id="kByOkMor4dgoViuKzWpp-26" value="주인공 체력&lt;br&gt;모두 회복" style="ellipse;whiteSpace=wrap;html=1;fontSize=14;" vertex="1" parent="1">
          <mxGeometry x="495" y="460" width="110" height="60" as="geometry" />
        </mxCell>
        <mxCell id="kByOkMor4dgoViuKzWpp-28" value="대기" style="shape=ext;double=1;whiteSpace=wrap;html=1;aspect=fixed;fontSize=14;" vertex="1" parent="1">
          <mxGeometry x="378" y="560" width="70" height="70" as="geometry" />
        </mxCell>
        <mxCell id="kByOkMor4dgoViuKzWpp-30" value="대기" style="shape=ext;double=1;whiteSpace=wrap;html=1;aspect=fixed;fontSize=14;" vertex="1" parent="1">
          <mxGeometry x="515" y="560" width="70" height="70" as="geometry" />
        </mxCell>
      </root>
    </mxGraphModel>
  </diagram>
</mxfile>
